<svg xmlns="http://www.w3.org/2000/svg" style="background: transparent; background-color: transparent;" xmlns:xlink="http://www.w3.org/1999/xlink" version="1.1" width="78px" height="30px" viewBox="-0.5 -0.5 78 30"><defs><linearGradient x1="0%" y1="0%" x2="0%" y2="100%" id="drawio-svg-x-bd4xjYlu6MEqUKaq_7-gradient-_dae8fc-1-_7ea6e0-1-s-0"><stop offset="0%" stop-color="#dae8fc" stop-opacity="1" style="stop-color: rgb(218, 232, 252); stop-opacity: 1;"/><stop offset="100%" stop-color="#7ea6e0" stop-opacity="1" style="stop-color: rgb(126, 166, 224); stop-opacity: 1;"/></linearGradient><linearGradient x1="0%" y1="0%" x2="0%" y2="100%" id="drawio-svg-x-bd4xjYlu6MEqUKaq_7-gradient-_d5e8d4-1-_97d077-1-s-0"><stop offset="0%" stop-color="#d5e8d4" stop-opacity="1" style="stop-color: rgb(213, 232, 212); stop-opacity: 1;"/><stop offset="100%" stop-color="#97d077" stop-opacity="1" style="stop-color: rgb(151, 208, 119); stop-opacity: 1;"/></linearGradient></defs><g><g data-cell-id="0"><g data-cell-id="1"><g data-cell-id="yg5QLsqgt5stCebbsZaJ-4"><g style="filter: drop-shadow(light-dark(rgba(0, 0, 0, 0.25), rgba(237, 237, 237, 0.25)) 0.2px 0.3px 0.2px);"><path d="M 23.6 3.4 L 23.6 8.26" fill="none" stroke="none" pointer-events="stroke"/><path d="M 23.6 8.79 L 23.25 8.09 L 23.6 8.26 L 23.95 8.09 Z" fill="none" stroke="none" pointer-events="all"/><path d="M 23.6 3.4 C 23.61 5.2 23.71 6.63 23.6 8.26 M 23.6 3.4 C 23.57 4.98 23.55 6.15 23.6 8.26" fill="none" stroke="#6c8ebf" stroke-width="0.1" stroke-linejoin="round" stroke-linecap="round" stroke-miterlimit="10" pointer-events="stroke" style="stroke: rgb(108, 142, 191);"/><path d="M 23.22 8.13 C 23.22 8.13 23.22 8.13 23.22 8.13 M 23.22 8.13 C 23.22 8.13 23.22 8.13 23.22 8.13 M 23.45 8.46 C 23.49 8.38 23.55 8.34 23.58 8.31 M 23.45 8.46 C 23.49 8.43 23.52 8.38 23.58 8.31" fill="none" stroke="#6c8ebf" stroke-width="0.1" stroke-linejoin="round" stroke-linecap="round" stroke-miterlimit="10" pointer-events="all" style="stroke: rgb(108, 142, 191);"/><path d="M 23.6 8.79 C 23.49 8.53 23.4 8.14 23.25 8.09 M 23.6 8.79 C 23.47 8.64 23.35 8.34 23.25 8.09 M 23.25 8.09 C 23.32 8.08 23.48 8.29 23.6 8.26 M 23.25 8.09 C 23.38 8.17 23.47 8.15 23.6 8.26 M 23.6 8.26 C 23.63 8.22 23.73 8.11 23.95 8.09 M 23.6 8.26 C 23.7 8.21 23.86 8.14 23.95 8.09 M 23.95 8.09 C 23.73 8.26 23.69 8.5 23.6 8.79 M 23.95 8.09 C 23.9 8.26 23.79 8.59 23.6 8.79" fill="none" stroke="#6c8ebf" stroke-width="0.1" stroke-linejoin="round" stroke-linecap="round" stroke-miterlimit="10" pointer-events="all" style="stroke: rgb(108, 142, 191);"/></g></g><g data-cell-id="fiolYso9fCH8peNfp4hV-2"><g style="filter: drop-shadow(light-dark(rgba(0, 0, 0, 0.25), rgba(237, 237, 237, 0.25)) 0.2px 0.3px 0.2px);"><rect x="13.1" y="0.4" width="21" height="3" fill="none" stroke="none" pointer-events="all"/><path d="M 13.36 0.15 L 34.01 0.79 L 33.81 3.01 L 12.92 3.07" fill="url(#drawio-svg-x-bd4xjYlu6MEqUKaq_7-gradient-_dae8fc-1-_7ea6e0-1-s-0)" stroke="none" pointer-events="all" style="fill: url(&quot;#drawio-svg-x-bd4xjYlu6MEqUKaq_7-gradient-_dae8fc-1-_7ea6e0-1-s-0&quot;);"/><path d="M 13.1 0.4 C 20.35 -0.19 28.12 -0.26 34.1 0.4 M 13.1 0.4 C 17.83 0.12 22.53 0.06 34.1 0.4 M 34.1 0.4 C 33.75 1.81 33.76 3.13 34.1 3.4 M 34.1 0.4 C 34.08 1.2 33.9 2.2 34.1 3.4 M 34.1 3.4 C 25.67 3.49 17.9 3.67 13.1 3.4 M 34.1 3.4 C 29.55 3.54 25.01 3.67 13.1 3.4 M 13.1 3.4 C 13.35 2.34 12.88 0.9 13.1 0.4 M 13.1 3.4 C 12.98 2.58 12.96 2.12 13.1 0.4" fill="none" stroke="#6c8ebf" stroke-width="0.1" stroke-linejoin="round" stroke-linecap="round" stroke-miterlimit="10" pointer-events="all" style="stroke: rgb(108, 142, 191);"/></g><g><g transform="scale(0.1)"><switch><foreignObject style="overflow: visible; text-align: left;" pointer-events="none" width="1000%" height="1000%" requiredFeatures="http://www.w3.org/TR/SVG11/feature#Extensibility"><div xmlns="http://www.w3.org/1999/xhtml" style="display: flex; align-items: unsafe center; justify-content: unsafe center; width: 1px; height: 1px; padding-top: 19px; margin-left: 236px;"><div style="box-sizing: border-box; font-size: 0; text-align: center; color: #000000; "><div style="display: inline-block; font-size: 12px; font-family: Helvetica; color: light-dark(#000000, #ffffff); line-height: 1.2; pointer-events: all; font-weight: bold; white-space: nowrap; ">1）打开【 配置管理】激活【项目】</div></div></div></foreignObject><text x="236" y="23" fill="light-dark(#000000, #ffffff)" font-family="Helvetica" font-size="12px" text-anchor="middle" font-weight="bold">1）打开【 配置管理】激活【项目】</text></switch></g></g></g><g data-cell-id="yg5QLsqgt5stCebbsZaJ-5"><g style="filter: drop-shadow(light-dark(rgba(0, 0, 0, 0.25), rgba(237, 237, 237, 0.25)) 0.2px 0.3px 0.2px);"><path d="M 23.6 11.9 L 23.6 16.26" fill="none" stroke="none" pointer-events="stroke"/><path d="M 23.6 16.79 L 23.25 16.09 L 23.6 16.26 L 23.95 16.09 Z" fill="none" stroke="none" pointer-events="all"/><path d="M 23.6 11.9 C 23.4 13.31 23.27 15.4 23.6 16.26 M 23.6 11.9 C 23.82 13.69 23.71 15.27 23.6 16.26" fill="none" stroke="#6c8ebf" stroke-width="0.1" stroke-linejoin="round" stroke-linecap="round" stroke-miterlimit="10" pointer-events="stroke" style="stroke: rgb(108, 142, 191);"/><path d="M 23.24 16.1 C 23.24 16.1 23.24 16.1 23.24 16.1 M 23.24 16.1 C 23.24 16.1 23.24 16.1 23.24 16.1 M 23.41 16.51 C 23.52 16.47 23.56 16.32 23.61 16.28 M 23.41 16.51 C 23.46 16.47 23.51 16.42 23.61 16.28" fill="none" stroke="#6c8ebf" stroke-width="0.1" stroke-linejoin="round" stroke-linecap="round" stroke-miterlimit="10" pointer-events="all" style="stroke: rgb(108, 142, 191);"/><path d="M 23.6 16.79 C 23.39 16.46 23.22 16.39 23.25 16.09 M 23.6 16.79 C 23.53 16.6 23.36 16.34 23.25 16.09 M 23.25 16.09 C 23.25 16.14 23.46 16.11 23.6 16.26 M 23.25 16.09 C 23.35 16.15 23.46 16.2 23.6 16.26 M 23.6 16.26 C 23.67 16.24 23.9 16.16 23.95 16.09 M 23.6 16.26 C 23.68 16.25 23.75 16.16 23.95 16.09 M 23.95 16.09 C 23.94 16.22 23.64 16.56 23.6 16.79 M 23.95 16.09 C 23.79 16.23 23.72 16.5 23.6 16.79" fill="none" stroke="#6c8ebf" stroke-width="0.1" stroke-linejoin="round" stroke-linecap="round" stroke-miterlimit="10" pointer-events="all" style="stroke: rgb(108, 142, 191);"/></g></g><g data-cell-id="fiolYso9fCH8peNfp4hV-6"><g style="filter: drop-shadow(light-dark(rgba(0, 0, 0, 0.25), rgba(237, 237, 237, 0.25)) 0.2px 0.3px 0.2px);"><rect x="4.6" y="8.9" width="38" height="3" fill="none" stroke="none" pointer-events="all"/><path d="M 4.48 8.83 L 42.61 9.06 L 42.97 11.93 L 4.89 11.56" fill="url(#drawio-svg-x-bd4xjYlu6MEqUKaq_7-gradient-_dae8fc-1-_7ea6e0-1-s-0)" stroke="none" pointer-events="all" style="fill: url(&quot;#drawio-svg-x-bd4xjYlu6MEqUKaq_7-gradient-_dae8fc-1-_7ea6e0-1-s-0&quot;);"/><path d="M 4.6 8.9 C 17.9 8.84 31.53 8.89 42.6 8.9 M 4.6 8.9 C 16.28 9.42 28.13 9.24 42.6 8.9 M 42.6 8.9 C 42.7 10.27 42.6 11.14 42.6 11.9 M 42.6 8.9 C 42.41 9.62 42.54 10.15 42.6 11.9 M 42.6 11.9 C 33.67 12.41 24.51 12.29 4.6 11.9 M 42.6 11.9 C 28 11.65 13.56 11.68 4.6 11.9 M 4.6 11.9 C 4.38 10.94 4.34 9.45 4.6 8.9 M 4.6 11.9 C 4.49 11.39 4.6 10.79 4.6 8.9" fill="none" stroke="#6c8ebf" stroke-width="0.1" stroke-linejoin="round" stroke-linecap="round" stroke-miterlimit="10" pointer-events="all" style="stroke: rgb(108, 142, 191);"/></g><g><g transform="scale(0.1)"><switch><foreignObject style="overflow: visible; text-align: left;" pointer-events="none" width="1000%" height="1000%" requiredFeatures="http://www.w3.org/TR/SVG11/feature#Extensibility"><div xmlns="http://www.w3.org/1999/xhtml" style="display: flex; align-items: unsafe center; justify-content: unsafe center; width: 1px; height: 1px; padding-top: 104px; margin-left: 236px;"><div style="box-sizing: border-box; font-size: 0; text-align: center; color: #000000; "><div style="display: inline-block; font-size: 12px; font-family: Helvetica; color: light-dark(#000000, #ffffff); line-height: 1.2; pointer-events: all; font-weight: bold; white-space: nowrap; ">2）敲击【工作】的【触发键】，等待【功能条】上出现相应的工作名</div></div></div></foreignObject><text x="236" y="108" fill="light-dark(#000000, #ffffff)" font-family="Helvetica" font-size="12px" text-anchor="middle" font-weight="bold">2）敲击【工作】的【触发键】，等待【功能条】上出现相应的工作名</text></switch></g></g></g><g data-cell-id="yg5QLsqgt5stCebbsZaJ-9"><g style="filter: drop-shadow(light-dark(rgba(0, 0, 0, 0.25), rgba(237, 237, 237, 0.25)) 0.2px 0.3px 0.2px);"><path d="M 37.1 26.9 L 39.1 26.9" fill="none" stroke="none" pointer-events="stroke"/><path d="M 37.1 26.9 C 37.52 26.72 38.78 26.56 39.1 26.9 M 37.1 26.9 C 37.54 26.87 38 27.03 39.1 26.9" fill="none" stroke="#82b366" stroke-width="0.1" stroke-linejoin="round" stroke-linecap="round" stroke-miterlimit="10" stroke-dasharray="1.2 1.2" pointer-events="stroke" style="stroke: rgb(130, 179, 102);"/></g></g><g data-cell-id="fiolYso9fCH8peNfp4hV-8"><g style="filter: drop-shadow(light-dark(rgba(0, 0, 0, 0.25), rgba(237, 237, 237, 0.25)) 0.2px 0.3px 0.2px);"><rect x="10.1" y="25.4" width="27" height="3" fill="none" stroke="none" pointer-events="all"/><path d="M 9.79 25.42 L 37.15 25.45 L 37.4 28.64 L 10.23 28.06" fill="url(#drawio-svg-x-bd4xjYlu6MEqUKaq_7-gradient-_dae8fc-1-_7ea6e0-1-s-0)" stroke="none" pointer-events="all" style="fill: url(&quot;#drawio-svg-x-bd4xjYlu6MEqUKaq_7-gradient-_dae8fc-1-_7ea6e0-1-s-0&quot;);"/><path d="M 10.1 25.4 C 19.69 25.41 29.08 25.53 37.1 25.4 M 10.1 25.4 C 16.89 25.46 23.69 25.3 37.1 25.4 M 37.1 25.4 C 37.08 25.65 37.32 26.4 37.1 28.4 M 37.1 25.4 C 37.02 26.48 37.11 27.77 37.1 28.4 M 37.1 28.4 C 27.25 27.93 17.91 28.24 10.1 28.4 M 37.1 28.4 C 29.93 28.38 22.88 28.38 10.1 28.4 M 10.1 28.4 C 10.16 27.78 10.34 27.38 10.1 25.4 M 10.1 28.4 C 9.85 27.55 10.03 26.57 10.1 25.4" fill="none" stroke="#6c8ebf" stroke-width="0.1" stroke-linejoin="round" stroke-linecap="round" stroke-miterlimit="10" pointer-events="all" style="stroke: rgb(108, 142, 191);"/></g><g><g transform="scale(0.1)"><switch><foreignObject style="overflow: visible; text-align: left;" pointer-events="none" width="1000%" height="1000%" requiredFeatures="http://www.w3.org/TR/SVG11/feature#Extensibility"><div xmlns="http://www.w3.org/1999/xhtml" style="display: flex; align-items: unsafe center; justify-content: unsafe center; width: 1px; height: 1px; padding-top: 269px; margin-left: 236px;"><div style="box-sizing: border-box; font-size: 0; text-align: center; color: #000000; "><div style="display: inline-block; font-size: 12px; font-family: Helvetica; color: light-dark(#000000, #ffffff); line-height: 1.2; pointer-events: all; font-weight: bold; white-space: nowrap; ">4）敲击【任务】的【触发键】启动【子任务】</div></div></div></foreignObject><text x="236" y="273" fill="light-dark(#000000, #ffffff)" font-family="Helvetica" font-size="12px" text-anchor="middle" font-weight="bold">4）敲击【任务】的【触发键】启动【子任务】</text></switch></g></g></g><g data-cell-id="fiolYso9fCH8peNfp4hV-10"><g style="filter: drop-shadow(light-dark(rgba(0, 0, 0, 0.25), rgba(237, 237, 237, 0.25)) 0.2px 0.3px 0.2px);"><rect x="52.1" y="0.4" width="25" height="3" fill="none" stroke="none" pointer-events="all"/><path d="M 51.81 0.1 L 77.24 0.71 L 76.85 3.13 L 52.37 3.24" fill="url(#drawio-svg-x-bd4xjYlu6MEqUKaq_7-gradient-_d5e8d4-1-_97d077-1-s-0)" stroke="none" pointer-events="all" style="fill: url(&quot;#drawio-svg-x-bd4xjYlu6MEqUKaq_7-gradient-_d5e8d4-1-_97d077-1-s-0&quot;);"/><path d="M 52.1 0.4 C 57.58 -0.07 63.78 0.44 77.1 0.4 M 52.1 0.4 C 59.79 0.1 67.62 0.14 77.1 0.4 M 77.1 0.4 C 77.43 0.92 77.11 1.77 77.1 3.4 M 77.1 0.4 C 76.93 1.02 77.09 1.84 77.1 3.4 M 77.1 3.4 C 71.81 3.45 66.61 3.04 52.1 3.4 M 77.1 3.4 C 71.39 2.96 65.3 3.13 52.1 3.4 M 52.1 3.4 C 52.05 2.93 52.23 2.33 52.1 0.4 M 52.1 3.4 C 52.2 2.71 51.98 2.2 52.1 0.4" fill="none" stroke="#82b366" stroke-width="0.1" stroke-linejoin="round" stroke-linecap="round" stroke-miterlimit="10" stroke-dasharray="1.2 1.2" pointer-events="all" style="stroke: rgb(130, 179, 102);"/></g><g><g transform="scale(0.1)"><switch><foreignObject style="overflow: visible; text-align: left;" pointer-events="none" width="1000%" height="1000%" requiredFeatures="http://www.w3.org/TR/SVG11/feature#Extensibility"><div xmlns="http://www.w3.org/1999/xhtml" style="display: flex; align-items: unsafe center; justify-content: unsafe center; width: 1px; height: 1px; padding-top: 19px; margin-left: 646px;"><div style="box-sizing: border-box; font-size: 0; text-align: center; color: #000000; "><div style="display: inline-block; font-size: 12px; font-family: Helvetica; color: light-dark(#000000, #ffffff); line-height: 1.2; pointer-events: all; font-weight: bold; white-space: nowrap; ">【小笨手】开始监听【工作】的【触发键】</div></div></div></foreignObject><text x="646" y="23" fill="light-dark(#000000, #ffffff)" font-family="Helvetica" font-size="12px" text-anchor="middle" font-weight="bold">【小笨手】开始监听【工作】的【触发键】</text></switch></g></g></g><g data-cell-id="fiolYso9fCH8peNfp4hV-12"><g style="filter: drop-shadow(light-dark(rgba(0, 0, 0, 0.25), rgba(237, 237, 237, 0.25)) 0.2px 0.3px 0.2px);"><rect x="52.1" y="16.9" width="25" height="3" fill="none" stroke="none" pointer-events="all"/><path d="M 52.42 16.69 L 77.29 17.1 L 76.78 19.84 L 52.21 19.73" fill="url(#drawio-svg-x-bd4xjYlu6MEqUKaq_7-gradient-_d5e8d4-1-_97d077-1-s-0)" stroke="none" pointer-events="all" style="fill: url(&quot;#drawio-svg-x-bd4xjYlu6MEqUKaq_7-gradient-_d5e8d4-1-_97d077-1-s-0&quot;);"/><path d="M 52.1 16.9 C 57.86 16.58 63.67 16.5 77.1 16.9 M 52.1 16.9 C 58.45 17 65.08 16.78 77.1 16.9 M 77.1 16.9 C 77.19 17.7 77.22 19.03 77.1 19.9 M 77.1 16.9 C 77.05 17.68 77.16 18.27 77.1 19.9 M 77.1 19.9 C 68.54 19.82 60.25 19.89 52.1 19.9 M 77.1 19.9 C 69.1 19.67 61.29 19.81 52.1 19.9 M 52.1 19.9 C 52.34 19.18 51.93 18.26 52.1 16.9 M 52.1 19.9 C 52.06 18.87 51.91 17.98 52.1 16.9" fill="none" stroke="#82b366" stroke-width="0.1" stroke-linejoin="round" stroke-linecap="round" stroke-miterlimit="10" stroke-dasharray="1.2 1.2" pointer-events="all" style="stroke: rgb(130, 179, 102);"/></g><g><g transform="scale(0.1)"><switch><foreignObject style="overflow: visible; text-align: left;" pointer-events="none" width="1000%" height="1000%" requiredFeatures="http://www.w3.org/TR/SVG11/feature#Extensibility"><div xmlns="http://www.w3.org/1999/xhtml" style="display: flex; align-items: unsafe center; justify-content: unsafe center; width: 1px; height: 1px; padding-top: 184px; margin-left: 646px;"><div style="box-sizing: border-box; font-size: 0; text-align: center; color: #000000; "><div style="display: inline-block; font-size: 12px; font-family: Helvetica; color: light-dark(#000000, #ffffff); line-height: 1.2; pointer-events: all; font-weight: bold; white-space: nowrap; ">【小笨手】开始监听【任务】的【触发键】</div></div></div></foreignObject><text x="646" y="188" fill="light-dark(#000000, #ffffff)" font-family="Helvetica" font-size="12px" text-anchor="middle" font-weight="bold">【小笨手】开始监听【任务】的【触发键】</text></switch></g></g></g><g data-cell-id="fiolYso9fCH8peNfp4hV-14"><g style="filter: drop-shadow(light-dark(rgba(0, 0, 0, 0.25), rgba(237, 237, 237, 0.25)) 0.2px 0.3px 0.2px);"><rect x="39.1" y="25.4" width="38" height="3" fill="none" stroke="none" pointer-events="all"/><path d="M 39.23 25.28 L 77.33 25.48 L 76.71 28.55 L 39.04 28.23" fill="url(#drawio-svg-x-bd4xjYlu6MEqUKaq_7-gradient-_d5e8d4-1-_97d077-1-s-0)" stroke="none" pointer-events="all" style="fill: url(&quot;#drawio-svg-x-bd4xjYlu6MEqUKaq_7-gradient-_d5e8d4-1-_97d077-1-s-0&quot;);"/><path d="M 39.1 25.4 C 47.54 26 56.48 25.98 77.1 25.4 M 39.1 25.4 C 46.74 25.89 54.43 25.78 77.1 25.4 M 77.1 25.4 C 77.07 25.88 77.45 27.09 77.1 28.4 M 77.1 25.4 C 77.16 26.54 77.23 27.49 77.1 28.4 M 77.1 28.4 C 67.45 28.77 57.17 28.7 39.1 28.4 M 77.1 28.4 C 61.95 28.36 46.89 28.44 39.1 28.4 M 39.1 28.4 C 39.51 27.42 39.31 26.19 39.1 25.4 M 39.1 28.4 C 38.93 27.63 39.24 26.97 39.1 25.4" fill="none" stroke="#82b366" stroke-width="0.1" stroke-linejoin="round" stroke-linecap="round" stroke-miterlimit="10" stroke-dasharray="1.2 1.2" pointer-events="all" style="stroke: rgb(130, 179, 102);"/></g><g><g transform="scale(0.1)"><switch><foreignObject style="overflow: visible; text-align: left;" pointer-events="none" width="1000%" height="1000%" requiredFeatures="http://www.w3.org/TR/SVG11/feature#Extensibility"><div xmlns="http://www.w3.org/1999/xhtml" style="display: flex; align-items: unsafe center; justify-content: unsafe center; width: 1px; height: 1px; padding-top: 269px; margin-left: 581px;"><div style="box-sizing: border-box; font-size: 0; text-align: center; color: #000000; "><div style="display: inline-block; font-size: 12px; font-family: Helvetica; color: light-dark(#000000, #ffffff); line-height: 1.2; pointer-events: all; font-weight: bold; white-space: nowrap; ">【小笨手】的【子任务】处于执行状态，按照设定输出【自动按键】</div></div></div></foreignObject><text x="581" y="273" fill="light-dark(#000000, #ffffff)" font-family="Helvetica" font-size="12px" text-anchor="middle" font-weight="bold">【小笨手】的【子任务】处于执行状态，按照设定输出【自动按键】</text></switch></g></g></g><g data-cell-id="yg5QLsqgt5stCebbsZaJ-6"><g style="filter: drop-shadow(light-dark(rgba(0, 0, 0, 0.25), rgba(237, 237, 237, 0.25)) 0.2px 0.3px 0.2px);"><path d="M 23.6 19.9 L 23.6 24.76" fill="none" stroke="none" pointer-events="stroke"/><path d="M 23.6 25.29 L 23.25 24.59 L 23.6 24.76 L 23.95 24.59 Z" fill="none" stroke="none" pointer-events="all"/><path d="M 23.6 19.9 C 23.98 21.29 23.62 23.59 23.6 24.76 M 23.6 19.9 C 23.68 20.89 23.48 22.28 23.6 24.76" fill="none" stroke="#6c8ebf" stroke-width="0.1" stroke-linejoin="round" stroke-linecap="round" stroke-miterlimit="10" pointer-events="stroke" style="stroke: rgb(108, 142, 191);"/><path d="M 23.25 24.59 C 23.25 24.59 23.25 24.59 23.25 24.59 M 23.25 24.59 C 23.25 24.59 23.25 24.59 23.25 24.59 M 23.42 25 C 23.46 24.93 23.58 24.92 23.62 24.77 M 23.42 25 C 23.46 24.97 23.51 24.89 23.62 24.77" fill="none" stroke="#6c8ebf" stroke-width="0.1" stroke-linejoin="round" stroke-linecap="round" stroke-miterlimit="10" pointer-events="all" style="stroke: rgb(108, 142, 191);"/><path d="M 23.6 25.29 C 23.62 24.87 23.34 24.82 23.25 24.59 M 23.6 25.29 C 23.51 25.05 23.35 24.98 23.25 24.59 M 23.25 24.59 C 23.4 24.58 23.42 24.66 23.6 24.76 M 23.25 24.59 C 23.31 24.65 23.37 24.68 23.6 24.76 M 23.6 24.76 C 23.78 24.63 23.92 24.62 23.95 24.59 M 23.6 24.76 C 23.67 24.74 23.79 24.68 23.95 24.59 M 23.95 24.59 C 23.8 24.82 23.8 25.08 23.6 25.29 M 23.95 24.59 C 23.87 24.69 23.82 24.92 23.6 25.29" fill="none" stroke="#6c8ebf" stroke-width="0.1" stroke-linejoin="round" stroke-linecap="round" stroke-miterlimit="10" pointer-events="all" style="stroke: rgb(108, 142, 191);"/></g></g><g data-cell-id="yg5QLsqgt5stCebbsZaJ-8"><g style="filter: drop-shadow(light-dark(rgba(0, 0, 0, 0.25), rgba(237, 237, 237, 0.25)) 0.2px 0.3px 0.2px);"><path d="M 40.6 18.4 L 52.1 18.4" fill="none" stroke="none" pointer-events="stroke"/><path d="M 40.6 18.4 C 44.73 18.42 48.91 18.22 52.1 18.4 M 40.6 18.4 C 45.09 18.52 49.52 18.44 52.1 18.4" fill="none" stroke="#82b366" stroke-width="0.1" stroke-linejoin="round" stroke-linecap="round" stroke-miterlimit="10" stroke-dasharray="1.2 1.2" pointer-events="stroke" style="stroke: rgb(130, 179, 102);"/></g></g><g data-cell-id="fiolYso9fCH8peNfp4hV-4"><g style="filter: drop-shadow(light-dark(rgba(0, 0, 0, 0.25), rgba(237, 237, 237, 0.25)) 0.2px 0.3px 0.2px);"><rect x="6.6" y="16.9" width="34" height="3" fill="none" stroke="none" pointer-events="all"/><path d="M 6.67 16.74 L 40.56 17.18 L 40.24 19.72 L 6.26 19.57" fill="url(#drawio-svg-x-bd4xjYlu6MEqUKaq_7-gradient-_dae8fc-1-_7ea6e0-1-s-0)" stroke="none" pointer-events="all" style="fill: url(&quot;#drawio-svg-x-bd4xjYlu6MEqUKaq_7-gradient-_dae8fc-1-_7ea6e0-1-s-0&quot;);"/><path d="M 6.6 16.9 C 18.76 17.28 30.76 17.28 40.6 16.9 M 6.6 16.9 C 19.15 17 31.51 17.02 40.6 16.9 M 40.6 16.9 C 40.93 17.99 40.49 18.38 40.6 19.9 M 40.6 16.9 C 40.69 17.86 40.47 18.63 40.6 19.9 M 40.6 19.9 C 30.16 19.95 19.3 19.95 6.6 19.9 M 40.6 19.9 C 30.5 19.43 20.35 19.49 6.6 19.9 M 6.6 19.9 C 6.21 19.19 6.76 18.02 6.6 16.9 M 6.6 19.9 C 6.75 19.14 6.79 17.9 6.6 16.9" fill="none" stroke="#6c8ebf" stroke-width="0.1" stroke-linejoin="round" stroke-linecap="round" stroke-miterlimit="10" pointer-events="all" style="stroke: rgb(108, 142, 191);"/></g><g><g transform="scale(0.1)"><switch><foreignObject style="overflow: visible; text-align: left;" pointer-events="none" width="1000%" height="1000%" requiredFeatures="http://www.w3.org/TR/SVG11/feature#Extensibility"><div xmlns="http://www.w3.org/1999/xhtml" style="display: flex; align-items: unsafe center; justify-content: unsafe center; width: 1px; height: 1px; padding-top: 184px; margin-left: 236px;"><div style="box-sizing: border-box; font-size: 0; text-align: center; color: #000000; "><div style="display: inline-block; font-size: 12px; font-family: Helvetica; color: light-dark(#000000, #ffffff); line-height: 1.2; pointer-events: all; font-weight: bold; white-space: nowrap; ">3）点击【功能条】的【运行按钮】，确认程序处于运行状态</div></div></div></foreignObject><text x="236" y="188" fill="light-dark(#000000, #ffffff)" font-family="Helvetica" font-size="12px" text-anchor="middle" font-weight="bold">3）点击【功能条】的【运行按钮】，确认程序处于运行状态</text></switch></g></g></g><g data-cell-id="yg5QLsqgt5stCebbsZaJ-10"><g style="filter: drop-shadow(light-dark(rgba(0, 0, 0, 0.25), rgba(237, 237, 237, 0.25)) 0.2px 0.3px 0.2px);"><path d="M 40.8 18.4 L 52 2.3" fill="none" stroke="none" pointer-events="stroke"/><path d="M 40.8 18.4 C 44.88 13.08 49.2 7.24 52 2.3 M 40.8 18.4 C 44.02 13.98 47.06 9.36 52 2.3" fill="none" stroke="#82b366" stroke-width="0.1" stroke-linejoin="round" stroke-linecap="round" stroke-miterlimit="10" stroke-dasharray="1.2 1.2" pointer-events="stroke" style="stroke: rgb(130, 179, 102);"/></g></g><g data-cell-id="yg5QLsqgt5stCebbsZaJ-14"><g style="filter: drop-shadow(light-dark(rgba(0, 0, 0, 0.25), rgba(237, 237, 237, 0.25)) 0.2px 0.3px 0.2px);"><path d="M 52.1 1.87 L 34.14 1.83" fill="none" stroke="none" pointer-events="stroke"/><path d="M 52.1 1.87 C 45.46 2.23 39.1 1.57 34.14 1.83 M 52.1 1.87 C 45.61 2.08 38.89 2.17 34.14 1.83" fill="none" stroke="#82b366" stroke-width="0.1" stroke-linejoin="round" stroke-linecap="round" stroke-miterlimit="10" stroke-dasharray="1.2 1.2" pointer-events="stroke" style="stroke: rgb(130, 179, 102);"/></g></g><g data-cell-id="-2m9r42SfE-nQKkVbKcr-1"><g style="filter: drop-shadow(light-dark(rgba(0, 0, 0, 0.25), rgba(237, 237, 237, 0.25)) 0.2px 0.3px 0.2px);"><path d="M 10.1 26.9 L 1.1 26.9 L 1.1 10.4 L 3.81 10.4" fill="none" stroke="none" pointer-events="stroke"/><path d="M 4.34 10.4 L 3.64 10.75 L 3.81 10.4 L 3.64 10.05 Z" fill="none" stroke="none" pointer-events="all"/><path d="M 10.1 26.9 C 6.49 26.93 3.22 26.88 1.1 26.9 M 10.1 26.9 C 7.41 26.78 4.5 27.01 1.1 26.9 M 1.1 26.9 C 1.04 22.73 0.46 18.93 1.1 10.4 M 1.1 26.9 C 1.03 23.08 0.91 19.45 1.1 10.4 M 1.1 10.4 C 2.43 10.39 3 10.2 3.81 10.4 M 1.1 10.4 C 1.83 10.56 2.52 10.42 3.81 10.4" fill="none" stroke="#6c8ebf" stroke-width="0.1" stroke-linejoin="round" stroke-linecap="round" stroke-miterlimit="10" pointer-events="stroke" style="stroke: rgb(108, 142, 191);"/><path d="M 3.64 10.05 C 3.64 10.05 3.64 10.05 3.64 10.05 M 3.64 10.05 C 3.64 10.05 3.64 10.05 3.64 10.05 M 3.87 10.39 C 3.95 10.34 3.93 10.26 4 10.24 M 3.87 10.39 C 3.92 10.33 3.97 10.28 4 10.24" fill="none" stroke="#6c8ebf" stroke-width="0.1" stroke-linejoin="round" stroke-linecap="round" stroke-miterlimit="10" pointer-events="all" style="stroke: rgb(108, 142, 191);"/><path d="M 4.34 10.4 C 4.05 10.5 3.9 10.62 3.64 10.75 M 4.34 10.4 C 4.14 10.46 3.85 10.65 3.64 10.75 M 3.64 10.75 C 3.72 10.6 3.65 10.52 3.81 10.4 M 3.64 10.75 C 3.7 10.64 3.71 10.57 3.81 10.4 M 3.81 10.4 C 3.82 10.29 3.68 10.12 3.64 10.05 M 3.81 10.4 C 3.76 10.34 3.7 10.22 3.64 10.05 M 3.64 10.05 C 3.94 10.27 4.1 10.45 4.34 10.4 M 3.64 10.05 C 3.84 10.09 3.9 10.2 4.34 10.4" fill="none" stroke="#6c8ebf" stroke-width="0.1" stroke-linejoin="round" stroke-linecap="round" stroke-miterlimit="10" pointer-events="all" style="stroke: rgb(108, 142, 191);"/></g></g></g></g></g><switch><g requiredFeatures="http://www.w3.org/TR/SVG11/feature#Extensibility"/><a transform="translate(0,-5)" xlink:href="https://www.drawio.com/doc/faq/svg-export-text-problems" target="_blank"><text text-anchor="middle" font-size="10px" x="50%" y="100%">Text is not SVG - cannot display</text></a></switch></svg>